<?xml version="1.0" encoding="iso-8859-1"?>
<!-- Generator: Adobe Illustrator 23.1.1, SVG Export Plug-In . SVG Version: 6.00 Build 0)  -->
<svg version="1.1" id="_x31_-outline-expand" xmlns="http://www.w3.org/2000/svg" xmlns:xlink="http://www.w3.org/1999/xlink"
	 x="0px" y="0px" viewBox="0 0 64 64" style="enable-background:new 0 0 64 64;" xml:space="preserve">
<path style="fill:#E7F4F7;" d="M11,17c0,1.657-1.343,3-3,3c-1.657,0-3-1.343-3-3c0-1.657,1.343-3,3-3C9.657,14,11,15.343,11,17"/>
<path style="fill:#E7F4F7;" d="M7,8c0,1.104-0.896,2-2,2c-1.104,0-2-0.896-2-2c0-1.104,0.896-2,2-2C6.104,6,7,6.896,7,8"/>
<path style="fill:#62C4C3;" d="M20,9c0,2.209-1.343,3-3,3c-1.657,0-3-0.791-3-3c0-2.209,3-6,3-6S20,6.791,20,9"/>
<path style="fill:#62C4C3;" d="M29,13c0,2.209-1.343,3-3,3c-1.657,0-3-0.791-3-3c0-2.209,3-6,3-6S29,10.791,29,13"/>
<path style="fill:#E0C494;" d="M25,23c-0.55,0-1.05-0.22-1.41-0.59C23.22,22.05,23,21.55,23,21c0-1.1,0.9-2,2-2h14v-1l-2.38-2.38
	c-0.4-0.4-0.62-0.94-0.62-1.5c0-0.58,0.24-1.12,0.62-1.5C37,12.24,37.54,12,38.12,12c0.56,0,1.1,0.22,1.5,0.62L45,18v1h17v16H27
	c-0.55,0-1.05-0.22-1.41-0.59C25.22,34.05,25,33.55,25,33c0-1.1,0.9-2,2-2h-2c-0.55,0-1.05-0.22-1.41-0.59
	C23.22,30.05,23,29.55,23,29c0-1.1,0.9-2,2-2h-2c-0.55,0-1.05-0.22-1.41-0.59C21.22,26.05,21,25.55,21,25c0-1.1,0.9-2,2-2H25z"/>
<path style="fill:#E7F4F7;" d="M36,41c-2.761,0-5,2.238-5,5h-8c0-1.226-0.369-2.364-1-3.314V36h10v-7c2.761,0,5-2.238,5-5
	c0-2.762-2.239-5-5-5c-1.792,0-3.351,0.95-4.233,2.366C26.67,19.931,24.946,19,23,19c-3.078,0-5.611,2.319-5.957,5.305
	C16.397,24.107,15.711,24,15,24c-3.866,0-7,3.134-7,7c0,1.494,0.472,2.877,1.27,4.014C9.18,35.01,9.091,35,9,35
	c-3.313,0-6,2.687-6,6c0,3.313,2.687,6,6,6c0.715,0,1.398-0.132,2.035-0.361C11.354,49.652,13.902,52,17,52
	c1.539,0,2.938-0.584,4-1.537V55c0,1.104,0.896,2,2,2c1.104,0,2-0.896,2-2v-3c0-1.104,0.896-2,2-2c1.104,0,2,0.896,2,2v7
	c0,1.104,0.896,2,2,2c1.104,0,2-0.896,2-2v-9.022C33.838,50.61,34.869,51,36,51c2.761,0,5-2.238,5-5S38.761,41,36,41"/>
<path style="fill:#F2DAAE;" d="M16,34c-0.55,0-1.05-0.22-1.41-0.59C14.22,33.05,14,32.55,14,32c0-1.1,0.9-2,2-2h14v-1l-2.38-2.38
	c-0.4-0.4-0.62-0.94-0.62-1.5c0-0.58,0.24-1.12,0.62-1.5C28,23.24,28.54,23,29.12,23c0.56,0,1.1,0.22,1.5,0.62L36,29v1h26v16H18
	c-0.55,0-1.05-0.22-1.41-0.59C16.22,45.05,16,44.55,16,44c0-1.1,0.9-2,2-2h-2c-0.55,0-1.05-0.22-1.41-0.59
	C14.22,41.05,14,40.55,14,40c0-1.1,0.9-2,2-2h-2c-0.55,0-1.05-0.22-1.41-0.59C12.22,37.05,12,36.55,12,36c0-1.1,0.9-2,2-2H16z"/>
<path style="fill:#3A4249;" d="M45,20h17v-2H46c0-0.266-0.105-0.52-0.293-0.707l-5.379-5.379C39.739,11.324,38.955,11,38.121,11
	C36.4,11,35,12.4,35,14.121c0,0.822,0.333,1.626,0.914,2.207L37.586,18H32c-1.644,0-3.177,0.666-4.292,1.826
	C26.429,18.653,24.769,18,23,18c-3.176,0-5.903,2.128-6.739,5.1C15.842,23.033,15.42,23,15,23c-4.411,0-8,3.589-8,8
	c0,1.092,0.218,2.152,0.639,3.133C4.428,34.769,2,37.605,2,41c0,3.859,3.14,7,7,7c0.422,0,0.84-0.038,1.252-0.114
	C11.079,50.869,13.803,53,17,53c1.049,0,2.072-0.234,3-0.678V55c0,1.654,1.346,3,3,3c1.654,0,3-1.346,3-3v-3c0-0.552,0.449-1,1-1
	c0.551,0,1,0.448,1,1v7c0,1.654,1.346,3,3,3c1.654,0,3-1.346,3-3v-7.351C34.64,51.881,35.313,52,36,52c2.967,0,5.431-2.167,5.91-5
	H62v-2H18c-0.551,0-1-0.448-1-1s0.449-1,1-1h9v-2h-9h-2c-0.551,0-1-0.448-1-1s0.449-1,1-1h11v-2H16h-2c-0.551,0-1-0.448-1-1
	s0.449-1,1-1h2h11v-2H16c-0.551,0-1-0.448-1-1c0-0.552,0.449-1,1-1h14c0.552,0,1-0.447,1-1v-1c0-0.266-0.105-0.52-0.293-0.707
	l-2.379-2.379C28.12,25.705,28,25.416,28,25.121C28,24.503,28.503,24,29.121,24c0.3,0,0.581,0.116,0.793,0.328L35,29.414V30
	c0,0.553,0.448,1,1,1h26v-2H37c0-0.266-0.105-0.52-0.293-0.707l-0.271-0.271C37.425,26.927,38,25.492,38,24
	c0-1.537-0.586-2.938-1.541-4H39c0.552,0,1-0.447,1-1v-1c0-0.266-0.105-0.52-0.293-0.707l-2.379-2.379
	C37.12,14.705,37,14.416,37,14.121C37,13.503,37.503,13,38.121,13c0.3,0,0.581,0.116,0.793,0.328L44,18.414V19
	C44,19.553,44.448,20,45,20 M28.586,29H16c-1.654,0-3,1.346-3,3c0,0.395,0.081,0.771,0.22,1.115C11.945,33.462,11,34.617,11,36
	c0,1.383,0.945,2.538,2.22,2.885C13.081,39.229,13,39.605,13,40c0,1.383,0.945,2.538,2.22,2.885C15.081,43.229,15,43.605,15,44
	c0,1.654,1.346,3,3,3h21.858c-0.447,1.721-2,3-3.858,3c-0.855,0-1.685-0.283-2.4-0.819c-0.304-0.229-0.709-0.264-1.047-0.095
	C32.214,49.256,32,49.602,32,49.98V59c0,0.552-0.449,1-1,1c-0.551,0-1-0.448-1-1v-7c0-1.654-1.346-3-3-3c-1.654,0-3,1.346-3,3v3
	c0,0.552-0.449,1-1,1c-0.551,0-1-0.448-1-1v-4.54c0-0.396-0.233-0.754-0.595-0.914c-0.359-0.159-0.782-0.093-1.076,0.173
	C19.417,50.545,18.234,51,17,51c-2.566,0-4.705-1.92-4.976-4.466c-0.032-0.306-0.204-0.581-0.465-0.743
	c-0.262-0.164-0.583-0.195-0.873-0.091C10.143,45.899,9.576,46,9,46c-2.757,0-5-2.243-5-5c0-2.755,2.239-4.997,5.074-4.997
	c0.003,0,0.005,0,0.007,0.001c0.44,0.022,0.877-0.146,1.077-0.534c0.172-0.332,0.144-0.733-0.072-1.038C9.375,33.428,9,32.241,9,31
	c0-3.309,2.691-6,6-6c0.585,0,1.176,0.087,1.756,0.259c0.283,0.084,0.588,0.037,0.835-0.124c0.246-0.162,0.408-0.426,0.442-0.719
	C18.329,21.898,20.464,20,23,20c1.567,0,3.016,0.721,3.975,1.978c0.175,0.228,0.432,0.362,0.721,0.382
	C26.694,22.881,26,23.916,26,25.121c0,0.822,0.333,1.626,0.914,2.207L28.586,29z M36,24c0,0.961-0.359,1.886-0.979,2.607
	l-3.693-3.693C30.739,22.324,29.955,22,29.121,22c-0.218,0-0.431,0.023-0.637,0.066c0.05-0.051,0.098-0.107,0.136-0.17
	C29.356,20.709,30.62,20,32,20C34.206,20,36,21.794,36,24"/>
<path style="fill:#3A4249;" d="M4,17c0,2.206,1.794,4,4,4c2.206,0,4-1.794,4-4c0-2.206-1.794-4-4-4C5.794,13,4,14.794,4,17 M10,17
	c0,1.103-0.897,2-2,2c-1.103,0-2-0.897-2-2c0-1.103,0.897-2,2-2C9.103,15,10,15.897,10,17"/>
<path style="fill:#3A4249;" d="M5,11c1.654,0,3-1.346,3-3c0-1.654-1.346-3-3-3C3.346,5,2,6.346,2,8C2,9.654,3.346,11,5,11 M5,7
	c0.551,0,1,0.448,1,1c0,0.552-0.449,1-1,1C4.449,9,4,8.552,4,8C4,7.448,4.449,7,5,7"/>
<path style="fill:#3A4249;" d="M17.001,13c2.504,0,4-1.496,4-4c0-2.486-2.887-6.206-3.216-6.621c-0.379-0.48-1.19-0.48-1.569,0
	C15.886,2.794,13.001,6.514,13.001,9C13.001,11.504,14.495,13,17.001,13 M17.001,4.69c0.966,1.408,2,3.255,2,4.31
	c0,1.382-0.617,2-2,2c-1.384,0-2-0.618-2-2C15.001,7.947,16.035,6.1,17.001,4.69"/>
<path style="fill:#3A4249;" d="M26.001,17c2.504,0,4-1.496,4-4c0-2.486-2.887-6.206-3.216-6.621c-0.379-0.48-1.19-0.48-1.569,0
	c-0.329,0.415-3.215,4.135-3.215,6.621C22.001,15.504,23.495,17,26.001,17 M26.001,8.69c0.966,1.408,2,3.255,2,4.31
	c0,1.382-0.617,2-2,2c-1.384,0-2-0.618-2-2C24.001,11.947,25.035,10.1,26.001,8.69"/>
</svg>
